<?xml version="1.0" encoding="UTF-8" ?>
<!DOCTYPE svg PUBLIC "-//W3C//DTD SVG 1.1//EN" "http://www.w3.org/Graphics/SVG/1.1/DTD/svg11.dtd">
<svg width="785pt" height="725pt" viewBox="0 0 785 725" version="1.1" xmlns="http://www.w3.org/2000/svg">
<g id="#000000ff">
<path fill="#000000" opacity="1.00" d=" M 197.25 42.34 C 204.24 42.10 211.15 43.06 218.08 43.72 C 217.04 49.44 214.48 54.89 211.04 59.55 C 204.02 59.72 197.20 57.43 190.17 57.50 C 192.48 52.42 195.05 47.46 197.25 42.34 Z" />
<path fill="#000000" opacity="1.00" d=" M 236.51 74.75 C 246.93 75.87 257.48 75.63 267.81 77.61 C 264.86 84.42 261.45 91.00 258.41 97.76 C 257.37 99.85 255.86 102.85 253.02 102.18 C 248.54 101.54 244.01 101.46 239.54 100.75 C 234.93 100.12 230.22 100.81 225.64 100.04 C 223.73 99.79 224.60 97.85 224.95 96.64 C 227.12 91.39 230.01 86.47 232.29 81.27 C 233.47 78.99 234.28 76.26 236.51 74.75 Z" />
<path fill="#000000" opacity="1.00" d=" M 274.58 109.78 C 287.31 110.36 300.01 112.59 312.80 112.72 C 308.61 122.90 303.70 132.78 298.55 142.50 C 285.73 141.34 272.92 139.72 260.05 139.31 C 262.29 131.86 266.37 125.17 269.47 118.07 C 270.95 115.21 271.95 111.84 274.58 109.78 Z" />
<path fill="#000000" opacity="1.00" d=" M 317.77 138.26 C 328.68 137.88 339.43 139.88 350.27 140.69 C 354.62 141.32 359.06 141.27 363.36 142.24 C 358.23 153.15 352.62 163.82 347.57 174.77 C 336.66 174.44 325.84 172.97 315.01 171.77 C 311.00 171.34 306.82 171.87 303.01 170.29 C 303.67 167.26 305.13 164.50 306.51 161.76 C 310.45 154.02 314.00 146.08 317.77 138.26 Z" />
<path fill="#000000" opacity="1.00" d=" M 371.52 159.56 C 372.92 159.46 374.32 159.60 375.71 159.80 C 381.52 160.92 387.48 160.26 393.31 161.29 C 404.21 161.75 415.12 162.30 425.94 163.76 C 422.15 173.98 416.85 183.58 412.25 193.46 C 410.21 197.35 408.87 201.64 406.36 205.27 C 401.25 206.08 396.14 204.80 391.04 204.56 C 379.31 204.37 367.71 202.31 355.97 202.34 C 354.26 202.40 352.63 201.74 351.34 200.64 C 351.94 198.01 353.25 195.62 354.43 193.22 C 359.41 183.41 363.88 173.36 368.73 163.49 C 369.48 162.08 370.20 160.54 371.52 159.56 Z" />
<path fill="#000000" opacity="1.00" d=" M 431.77 178.53 C 433.00 175.91 434.47 172.44 437.98 172.74 C 447.84 172.75 457.74 172.44 467.57 173.49 C 476.36 173.61 485.17 173.66 493.97 173.66 C 493.12 177.06 491.81 180.32 490.23 183.44 C 484.72 194.36 479.66 205.50 474.27 216.48 C 472.63 219.70 471.52 223.29 469.13 226.06 C 464.45 227.06 459.72 225.78 455.04 225.59 C 440.03 225.52 425.03 225.39 410.03 225.38 C 411.21 221.31 413.12 217.52 414.97 213.72 C 420.55 201.99 426.32 190.33 431.77 178.53 Z" />
<path fill="#000000" opacity="1.00" d=" M 503.70 173.24 C 511.73 172.83 519.46 175.27 527.40 175.96 C 562.93 181.72 598.53 188.72 632.30 201.43 C 640.30 203.50 647.35 208.00 654.85 211.33 C 664.33 216.10 674.43 219.83 683.12 226.03 C 692.46 230.99 700.91 237.40 709.33 243.76 C 718.93 251.05 728.13 258.88 736.52 267.54 C 745.21 275.49 753.13 284.24 760.65 293.30 C 763.26 296.34 766.17 299.17 768.24 302.63 C 769.16 303.93 768.29 305.49 767.82 306.78 C 732.82 379.76 697.79 452.73 662.79 525.72 C 634.79 583.86 607.11 642.15 578.94 700.21 C 575.38 696.02 572.62 691.21 568.76 687.28 C 563.92 681.15 558.84 675.21 553.21 669.79 C 537.69 653.00 519.71 638.63 500.63 626.09 C 494.95 622.67 489.36 619.11 483.29 616.40 C 474.44 610.23 464.76 604.97 454.24 602.30 C 432.21 592.06 408.54 585.86 384.90 580.50 C 367.68 577.13 350.37 574.20 332.91 572.54 C 326.40 571.23 319.70 571.87 313.23 570.34 C 315.63 562.45 320.22 555.51 323.48 547.99 C 328.70 535.83 335.44 524.41 340.65 512.25 C 358.97 473.97 377.34 435.71 395.72 397.46 C 403.44 382.63 410.34 367.39 417.75 352.41 C 423.98 353.70 430.38 353.71 436.69 354.46 C 457.05 356.87 477.48 359.50 497.26 365.07 C 504.12 366.92 510.68 369.69 517.44 371.85 C 521.91 363.88 525.58 355.50 529.53 347.26 C 540.26 325.27 550.67 303.13 561.33 281.11 C 566.94 268.61 573.72 256.63 578.64 243.83 C 550.93 234.92 522.25 228.11 493.05 227.44 C 488.11 227.46 483.17 227.29 478.23 227.40 C 482.25 216.33 488.18 206.08 493.05 195.38 C 496.54 187.97 500.04 180.57 503.70 173.24 M 616.52 260.78 C 603.46 288.60 589.96 316.22 576.72 343.97 C 570.61 357.39 563.39 370.32 558.04 384.07 C 566.19 385.82 573.67 389.83 580.50 394.52 C 596.41 403.82 611.21 414.93 625.55 426.49 C 630.79 430.54 635.29 435.60 641.10 438.86 C 643.46 435.63 644.86 431.86 646.54 428.27 C 664.33 391.35 681.94 354.35 699.78 317.46 C 700.25 316.38 700.52 315.25 700.59 314.08 C 698.87 311.60 696.57 309.62 694.39 307.58 C 687.02 300.92 679.90 293.95 671.85 288.11 C 660.54 279.81 648.99 271.74 636.64 265.07 C 630.66 262.56 625.20 258.77 618.90 257.13 C 617.95 258.24 617.19 259.49 616.52 260.78 M 399.45 392.36 C 395.84 396.91 394.13 402.60 391.51 407.73 C 375.14 441.71 358.94 475.78 342.52 509.73 C 341.68 511.77 340.34 513.82 340.61 516.12 C 345.69 517.88 351.13 517.26 356.38 518.00 C 378.77 521.15 401.60 522.73 423.18 529.94 C 427.87 531.41 432.11 534.15 436.95 535.17 C 439.25 534.98 440.23 532.69 441.18 530.91 C 458.39 494.85 475.82 458.90 492.99 422.81 C 495.30 417.88 498.28 413.21 499.74 407.92 C 468.88 397.76 436.56 390.90 403.94 391.41 C 402.48 391.68 400.51 391.06 399.45 392.36 M 523.68 453.67 C 509.08 484.25 494.32 514.76 479.74 545.35 C 478.10 547.86 481.52 549.48 483.54 549.95 C 488.38 551.02 493.09 552.89 497.04 555.95 C 500.15 558.39 503.97 559.63 507.27 561.78 C 512.20 565.58 517.93 568.20 522.62 572.36 C 535.63 581.23 547.44 591.69 559.93 601.25 C 561.04 602.23 562.49 602.56 563.92 602.74 C 565.16 598.22 567.44 594.10 569.50 589.92 C 586.72 553.80 604.16 517.77 621.39 481.66 C 623.12 477.60 619.57 474.55 617.01 471.99 C 604.41 460.01 590.82 449.05 576.21 439.60 C 574.62 438.62 573.22 437.39 571.81 436.18 C 569.28 435.04 566.74 433.93 564.22 432.78 C 560.02 428.07 553.75 426.47 548.37 423.59 C 545.63 422.37 543.05 420.47 539.98 420.29 C 534.04 431.15 529.26 442.62 523.68 453.67 Z" />
<path fill="#000000" opacity="1.00" d=" M 108.34 228.29 C 110.67 222.87 113.28 217.58 115.88 212.29 C 122.46 213.87 129.23 214.28 135.96 214.77 C 135.28 220.50 132.34 225.86 128.96 230.43 C 122.08 230.18 115.13 229.55 108.34 228.29 Z" />
<path fill="#000000" opacity="1.00" d=" M 407.45 229.65 C 419.97 229.77 432.54 229.12 445.00 230.43 C 452.32 230.44 459.63 230.52 466.95 230.61 C 464.93 237.01 461.44 242.80 458.69 248.89 C 453.81 260.14 447.39 270.70 443.29 282.27 C 423.39 282.85 403.46 282.04 383.55 282.29 C 383.58 280.07 384.05 277.88 385.07 275.90 C 392.71 260.57 399.82 244.98 407.45 229.65 Z" />
<path fill="#000000" opacity="1.00" d=" M 142.96 267.62 C 147.09 259.97 149.88 251.52 154.83 244.37 C 165.26 244.77 175.68 245.67 186.07 246.68 C 183.30 255.03 178.70 262.61 175.21 270.67 C 170.35 270.64 165.46 270.77 160.65 269.93 C 154.77 268.89 148.40 270.68 142.96 267.62 Z" />
<path fill="#000000" opacity="1.00" d=" M 192.94 279.45 C 205.55 279.88 218.10 281.64 230.69 282.64 C 227.25 292.42 222.28 301.61 217.53 310.81 C 205.62 310.97 193.86 308.83 181.99 308.38 C 180.52 308.60 179.05 306.60 179.92 305.34 C 182.35 299.83 185.31 294.56 187.74 289.05 C 189.32 285.78 190.56 282.25 192.94 279.45 Z" />
<path fill="#000000" opacity="1.00" d=" M 380.59 285.66 C 392.76 285.32 404.84 286.98 417.01 286.56 C 424.54 287.20 432.30 285.58 439.69 287.47 C 439.31 289.08 438.68 290.62 438.00 292.12 C 430.37 307.84 422.87 323.62 415.33 339.37 C 409.40 339.14 403.43 339.68 397.55 338.72 C 383.69 337.89 369.69 339.50 355.92 337.41 C 358.46 330.67 362.00 324.37 365.06 317.86 C 370.19 307.10 375.26 296.32 380.59 285.66 Z" />
<path fill="#000000" opacity="1.00" d=" M 238.04 306.64 C 252.50 308.28 267.01 309.82 281.55 310.62 C 279.81 318.01 275.56 324.40 272.62 331.31 C 270.54 335.44 269.20 340.07 266.13 343.61 C 251.35 343.52 236.71 340.58 221.92 340.36 C 223.23 333.23 227.64 327.27 230.34 320.65 C 232.83 315.96 234.20 310.46 238.04 306.64 Z" />
<path fill="#000000" opacity="1.00" d=" M 285.32 337.67 C 286.34 335.83 286.98 333.54 288.80 332.32 C 299.92 331.92 310.94 333.82 322.02 334.41 C 328.40 334.34 334.71 335.29 341.06 335.69 C 344.12 336.35 341.94 339.20 341.34 341.03 C 337.13 349.53 333.05 358.09 328.95 366.65 C 327.14 370.31 325.86 374.37 323.03 377.41 C 318.30 377.88 313.66 376.45 308.95 376.56 C 303.03 376.65 297.19 375.51 291.28 375.38 C 283.77 374.16 276.10 374.95 268.63 373.42 C 273.61 361.24 279.90 349.65 285.32 337.67 Z" />
<path fill="#000000" opacity="1.00" d=" M 353.63 342.79 C 359.72 342.10 365.87 342.90 371.99 342.64 C 377.67 342.79 383.37 342.55 389.04 342.91 C 396.92 344.12 404.89 343.12 412.81 343.64 C 410.49 350.41 406.95 356.67 403.91 363.12 C 398.72 373.87 393.61 384.65 388.46 395.41 C 381.81 395.44 375.13 395.74 368.49 395.17 C 374.89 394.32 381.36 394.54 387.79 394.67 L 387.75 394.38 C 368.15 394.64 348.54 394.89 328.93 394.44 C 329.80 391.57 330.90 388.78 332.23 386.09 C 338.01 374.15 343.82 362.23 349.42 350.21 C 350.69 347.67 351.73 344.95 353.63 342.79 Z" />
<path fill="#000000" opacity="1.00" d=" M 34.05 382.62 C 40.99 383.79 48.12 383.03 55.00 384.75 C 53.24 389.96 51.31 395.39 47.77 399.66 C 40.69 400.30 33.75 398.17 26.68 398.40 C 29.03 393.09 31.60 387.89 34.05 382.62 Z" />
<path fill="#000000" opacity="1.00" d=" M 323.80 403.55 C 325.05 401.40 325.73 397.70 328.97 398.38 C 348.09 398.44 367.22 398.60 386.34 398.79 C 383.46 406.79 379.21 414.18 375.69 421.89 C 371.84 430.36 367.51 438.61 363.74 447.12 C 362.94 448.58 362.28 450.46 360.59 451.11 C 346.72 452.23 332.88 449.99 319.00 450.49 C 313.34 450.45 307.68 450.30 302.02 450.37 C 303.74 444.91 306.55 439.89 308.97 434.72 C 313.82 424.28 319.08 414.05 323.80 403.55 Z" />
<path fill="#000000" opacity="1.00" d=" M 71.38 416.51 C 82.25 416.44 93.00 418.50 103.87 418.69 C 101.70 424.98 98.40 430.78 95.67 436.84 C 94.62 439.00 93.70 441.27 92.26 443.23 C 88.09 443.93 83.84 443.23 79.69 442.74 C 73.22 442.18 66.50 442.48 60.24 440.59 C 63.34 432.31 67.93 424.65 71.38 416.51 Z" />
<path fill="#000000" opacity="1.00" d=" M 111.25 448.67 C 113.80 448.19 116.43 448.56 118.99 448.75 C 129.49 450.25 140.14 450.12 150.60 451.89 C 147.05 458.75 143.67 465.71 140.51 472.76 C 139.28 475.36 138.16 478.08 136.29 480.30 C 130.19 481.15 124.11 479.45 118.02 479.32 C 111.13 478.47 104.19 478.34 97.33 477.34 C 100.69 469.42 104.77 461.83 108.30 453.98 C 109.20 452.17 109.96 450.24 111.25 448.67 Z" />
<path fill="#000000" opacity="1.00" d=" M 299.37 454.65 C 310.58 454.66 321.84 454.17 333.00 455.40 C 341.62 455.50 350.24 455.48 358.86 455.63 C 357.11 461.63 353.91 467.04 351.35 472.70 C 347.04 481.98 342.33 491.07 338.14 500.41 C 337.01 502.76 336.03 505.23 334.36 507.27 C 332.62 507.63 330.82 507.56 329.06 507.60 C 311.08 507.36 293.09 507.32 275.11 507.24 C 276.33 501.36 279.57 496.23 282.05 490.84 C 287.73 478.73 293.66 466.74 299.37 454.65 Z" />
<path fill="#000000" opacity="1.00" d=" M 155.58 475.44 C 170.96 476.89 186.34 478.15 201.71 479.74 C 198.50 487.45 194.47 494.79 191.04 502.40 C 189.25 506.09 187.85 510.04 185.37 513.34 C 170.33 511.89 155.23 510.70 140.18 509.22 C 144.32 497.54 150.74 486.83 155.58 475.44 Z" />
<path fill="#000000" opacity="1.00" d=" M 207.56 500.21 C 225.54 500.12 243.39 502.26 261.30 503.51 C 263.00 505.24 261.18 507.44 260.59 509.28 C 254.73 521.05 249.25 533.01 243.41 544.79 C 235.92 544.56 228.38 544.94 220.97 543.75 C 210.14 542.97 199.33 542.21 188.51 541.37 C 189.38 538.24 190.49 535.19 191.95 532.30 C 197.24 521.64 202.17 510.81 207.56 500.21 Z" />
<path fill="#000000" opacity="1.00" d=" M 272.64 510.68 C 282.13 510.27 291.53 511.86 301.01 511.52 C 311.28 511.71 321.56 511.51 331.83 511.79 C 330.87 515.34 329.37 518.71 327.74 521.99 C 322.57 532.81 317.21 543.54 312.19 554.43 C 310.68 557.46 309.47 560.69 307.46 563.44 C 306.73 564.62 305.18 564.29 304.03 564.41 C 294.01 564.18 283.98 564.38 273.97 564.10 C 265.40 562.90 256.73 563.75 248.12 563.25 C 249.44 557.67 252.35 552.69 254.79 547.56 C 260.85 535.32 266.43 522.85 272.64 510.68 Z" />
</g>
<g id="#ff0000ff">
<path fill="#ff0000" opacity="1.00" d=" M 171.10 97.19 C 177.97 97.03 184.66 98.80 191.53 98.54 C 191.76 100.22 191.63 101.97 190.79 103.48 C 188.97 107.15 187.35 110.96 185.12 114.42 C 181.08 115.06 177.13 113.57 173.10 113.58 C 169.97 113.62 166.88 113.11 163.83 112.42 C 166.14 107.29 168.63 102.24 171.10 97.19 Z" />
<path fill="#ff0000" opacity="1.00" d=" M 207.90 133.56 C 218.53 132.91 229.01 135.30 239.62 135.58 C 236.46 143.89 232.24 151.74 228.34 159.70 C 222.56 159.51 216.73 159.85 211.02 158.78 C 206.03 158.45 200.96 158.79 196.11 157.29 C 198.31 151.99 201.02 146.93 203.38 141.69 C 204.70 138.89 205.86 135.94 207.90 133.56 Z" />
<path fill="#ff0000" opacity="1.00" d=" M 143.17 155.28 C 150.19 155.80 157.19 156.56 164.13 157.68 C 162.01 163.15 160.21 169.25 156.08 173.51 C 149.27 173.13 142.61 171.26 135.76 171.30 C 137.88 165.80 140.72 160.63 143.17 155.28 Z" />
<path fill="#ff0000" opacity="1.00" d=" M 246.45 167.61 C 250.29 167.25 254.19 167.37 257.97 168.12 C 267.12 168.86 276.31 169.28 285.38 170.72 C 280.54 180.22 276.25 190.00 271.27 199.44 C 258.25 198.75 245.33 196.68 232.29 196.40 C 235.60 188.43 239.77 180.84 243.30 172.96 C 244.24 171.13 244.94 169.06 246.45 167.61 Z" />
<path fill="#ff0000" opacity="1.00" d=" M 180.94 190.55 C 185.68 190.01 190.31 191.44 195.03 191.44 C 200.60 191.29 206.01 192.81 211.59 192.59 C 211.83 195.80 209.82 198.47 208.57 201.25 C 205.97 206.28 203.91 211.58 201.13 216.52 C 190.42 217.17 179.70 215.90 169.08 214.83 C 170.32 209.20 173.58 204.34 175.86 199.11 C 177.37 196.17 178.37 192.78 180.94 190.55 Z" />
<path fill="#ff0000" opacity="1.00" d=" M 290.82 194.60 C 298.27 193.61 305.72 195.26 313.15 195.76 C 318.04 196.69 323.07 196.24 327.97 197.24 C 330.89 197.76 334.67 196.47 336.60 199.46 C 330.30 209.66 326.25 221.05 320.37 231.49 C 315.03 230.06 309.46 230.89 304.09 229.72 C 294.85 228.89 285.67 227.51 276.38 227.38 C 275.90 223.61 278.38 220.53 279.82 217.27 C 283.65 209.79 286.80 201.97 290.82 194.60 Z" />
<path fill="#ff0000" opacity="1.00" d=" M 342.86 218.46 C 348.96 218.23 355.16 218.15 361.18 219.29 C 365.89 219.70 370.66 219.25 375.31 220.22 C 382.43 220.63 389.69 220.55 396.66 222.08 C 397.01 222.35 397.70 222.89 398.05 223.16 C 391.34 236.53 385.04 250.11 378.53 263.59 C 370.99 263.78 363.57 262.15 356.02 262.42 C 345.52 261.34 335.03 260.13 324.46 260.34 C 323.42 256.18 326.22 252.65 327.81 249.07 C 332.92 238.92 337.24 228.33 342.86 218.46 Z" />
<path fill="#ff0000" opacity="1.00" d=" M 218.95 224.50 C 222.31 224.24 225.69 224.57 229.02 225.08 C 238.20 225.93 247.39 226.47 256.55 227.60 C 257.21 230.57 255.28 233.13 254.12 235.69 C 250.56 242.62 247.49 249.79 243.74 256.61 C 237.54 255.34 231.19 255.84 224.97 254.76 C 218.76 254.50 212.63 253.42 206.40 253.35 C 205.74 249.51 208.29 246.34 209.73 243.03 C 212.89 236.90 215.37 230.40 218.95 224.50 Z" />
<path fill="#ff0000" opacity="1.00" d=" M 477.14 227.42 L 478.23 227.40 C 483.17 227.29 488.11 227.46 493.05 227.44 C 522.25 228.11 550.93 234.92 578.64 243.83 C 573.72 256.63 566.94 268.61 561.33 281.11 C 550.67 303.13 540.26 325.27 529.53 347.26 C 525.58 355.50 521.91 363.88 517.44 371.85 C 510.68 369.69 504.12 366.92 497.26 365.07 C 477.48 359.50 457.05 356.87 436.69 354.46 C 430.38 353.71 423.98 353.70 417.75 352.41 C 435.02 315.43 453.06 278.80 470.54 241.92 C 472.84 237.13 475.40 232.45 477.14 227.42 Z" />
<path fill="#ff0000" opacity="1.00" d=" M 263.90 250.75 C 269.72 249.81 275.90 250.44 281.76 251.34 C 290.83 252.03 299.84 253.18 308.92 253.67 C 308.48 258.29 305.81 262.20 303.94 266.32 C 300.55 273.08 297.75 280.15 293.86 286.64 C 286.73 287.06 279.74 285.60 272.65 285.39 C 264.68 284.04 256.48 284.28 248.61 282.40 C 253.66 271.83 258.62 261.20 263.90 250.75 Z" />
<path fill="#ff0000" opacity="1.00" d=" M 316.19 273.72 C 321.88 273.00 327.50 274.68 333.20 274.62 C 338.40 275.71 343.71 275.44 348.98 275.72 C 356.46 277.10 364.15 275.99 371.58 277.79 C 366.64 289.03 360.91 299.90 355.82 311.07 C 354.46 313.86 353.35 316.85 351.28 319.22 C 345.71 320.25 340.19 318.41 334.62 318.47 C 328.72 318.65 322.95 317.16 317.04 317.31 C 310.19 316.07 303.21 316.57 296.29 316.20 C 297.90 309.97 301.44 304.51 304.01 298.67 C 308.10 290.37 311.71 281.80 316.19 273.72 Z" />
</g>
<g id="#3d9836ff">
<path fill="#3d9836" opacity="1.00" d=" M 616.52 260.78 C 617.19 259.49 617.95 258.24 618.90 257.13 C 625.20 258.77 630.66 262.56 636.64 265.07 C 648.99 271.74 660.54 279.81 671.85 288.11 C 679.90 293.95 687.02 300.92 694.39 307.58 C 696.57 309.62 698.87 311.60 700.59 314.08 C 700.52 315.25 700.25 316.38 699.78 317.46 C 681.94 354.35 664.33 391.35 646.54 428.27 C 644.86 431.86 643.46 435.63 641.10 438.86 C 635.29 435.60 630.79 430.54 625.55 426.49 C 611.21 414.93 596.41 403.82 580.50 394.52 C 573.67 389.83 566.19 385.82 558.04 384.07 C 563.39 370.32 570.61 357.39 576.72 343.97 C 589.96 316.22 603.46 288.60 616.52 260.78 Z" />
</g>
<g id="#0d3997ff">
<path fill="#0d3997" opacity="1.00" d=" M 81.14 284.83 C 83.72 279.69 85.52 273.89 89.01 269.37 C 95.49 269.53 101.89 271.14 108.42 270.58 C 108.66 272.58 108.80 274.69 107.78 276.52 C 106.08 279.96 104.75 283.72 102.20 286.64 C 95.13 286.96 88.06 286.32 81.14 284.83 Z" />
<path fill="#0d3997" opacity="1.00" d=" M 126.50 301.87 C 137.17 303.09 147.94 303.40 158.61 304.79 C 155.34 313.23 150.96 321.19 147.17 329.40 C 143.10 329.58 139.11 328.58 135.05 328.54 C 128.13 328.62 121.33 327.05 114.39 327.30 C 118.23 318.73 122.38 310.30 126.50 301.87 Z" />
<path fill="#0d3997" opacity="1.00" d=" M 61.14 326.48 C 67.99 328.33 75.37 327.25 82.12 329.64 C 80.03 334.69 77.96 340.01 74.75 344.42 C 67.55 345.39 60.40 342.89 53.16 343.31 C 55.56 337.58 58.28 331.99 61.14 326.48 Z" />
<path fill="#0d3997" opacity="1.00" d=" M 164.43 337.64 C 170.30 336.82 176.12 338.74 182.00 338.62 C 189.19 339.59 196.45 339.70 203.63 340.77 C 200.19 348.62 196.20 356.22 192.66 364.04 C 191.52 365.84 191.01 368.93 188.78 369.50 C 176.25 369.38 163.85 366.84 151.28 367.19 C 151.91 361.66 155.19 356.99 157.38 352.01 C 159.82 347.27 161.62 342.18 164.43 337.64 Z" />
<path fill="#0d3997" opacity="1.00" d=" M 99.69 359.05 C 110.03 360.41 120.45 360.55 130.80 361.81 C 128.52 370.50 123.26 378.01 120.01 386.34 C 109.07 387.01 98.27 384.23 87.33 384.53 C 88.48 381.06 89.93 377.71 91.62 374.47 C 94.28 369.32 96.20 363.74 99.69 359.05 Z" />
<path fill="#0d3997" opacity="1.00" d=" M 210.52 362.60 C 218.82 363.06 227.11 364.34 235.44 364.71 C 242.16 365.86 249.09 365.49 255.69 367.39 C 250.46 378.41 244.98 389.33 240.02 400.47 C 226.89 398.96 213.69 398.23 200.58 396.54 C 198.45 396.40 196.31 396.40 194.19 396.31 C 197.28 387.95 201.75 380.19 205.41 372.07 C 207.00 368.86 208.17 365.35 210.52 362.60 Z" />
<path fill="#0d3997" opacity="1.00" d=" M 260.94 388.56 C 271.21 387.63 281.51 388.95 291.74 389.92 C 297.15 390.82 302.68 390.09 308.10 390.89 C 310.46 391.27 312.85 391.38 315.24 391.44 C 315.59 393.10 315.76 394.92 314.83 396.44 C 308.90 408.49 303.24 420.67 297.37 432.74 C 278.74 433.12 260.29 430.51 241.75 429.45 C 245.50 419.47 250.75 410.15 255.18 400.47 C 257.16 396.53 258.72 392.38 260.94 388.56 Z" />
<path fill="#0d3997" opacity="1.00" d=" M 137.79 392.47 C 144.23 392.12 150.55 393.48 156.96 393.71 C 163.57 394.79 170.30 394.41 176.88 395.78 C 174.68 402.35 171.14 408.35 168.33 414.66 C 166.74 417.90 165.51 421.37 163.32 424.28 C 157.18 425.17 151.08 423.28 144.93 423.31 C 138.14 422.21 131.26 422.35 124.41 422.13 C 127.78 411.79 133.68 402.51 137.79 392.47 Z" />
<path fill="#0d3997" opacity="1.00" d=" M 399.45 392.36 C 400.51 391.06 402.48 391.68 403.94 391.41 C 436.56 390.90 468.88 397.76 499.74 407.92 C 498.28 413.21 495.30 417.88 492.99 422.81 C 475.82 458.90 458.39 494.85 441.18 530.91 C 440.23 532.69 439.25 534.98 436.95 535.17 C 432.11 534.15 427.87 531.41 423.18 529.94 C 401.60 522.73 378.77 521.15 356.38 518.00 C 351.13 517.26 345.69 517.88 340.61 516.12 C 340.34 513.82 341.68 511.77 342.52 509.73 C 358.94 475.78 375.14 441.71 391.51 407.73 C 394.13 402.60 395.84 396.91 399.45 392.36 Z" />
<path fill="#0d3997" opacity="1.00" d=" M 181.39 421.83 C 182.41 419.78 183.67 416.83 186.49 417.50 C 200.40 418.49 214.19 421.01 228.18 420.80 C 228.28 422.25 228.74 423.82 228.07 425.21 C 223.07 435.26 218.28 445.42 213.40 455.53 C 198.12 453.83 182.83 451.87 167.45 451.31 C 172.11 441.49 176.85 431.71 181.39 421.83 Z" />
<path fill="#0d3997" opacity="1.00" d=" M 231.80 449.07 C 232.51 447.93 233.07 445.91 234.82 446.27 C 246.27 446.05 257.63 447.43 269.02 448.41 C 275.63 448.29 282.14 449.73 288.76 449.56 C 285.90 457.85 281.46 465.47 277.82 473.42 C 274.74 479.30 272.53 485.63 268.99 491.26 C 266.05 491.94 262.98 491.41 260.01 491.13 C 255.67 490.33 251.21 490.83 246.87 490.04 C 241.79 489.14 236.58 489.88 231.50 489.00 C 225.78 487.93 219.73 489.39 214.21 487.21 C 214.70 483.93 216.46 481.06 217.87 478.12 C 222.64 468.49 227.13 458.74 231.80 449.07 Z" />
</g>
<g id="#ffff00ff">
<path fill="#ffff00" opacity="1.00" d=" M 523.68 453.67 C 529.26 442.62 534.04 431.15 539.98 420.29 C 543.05 420.47 545.63 422.37 548.37 423.59 C 553.75 426.47 560.02 428.07 564.22 432.78 C 566.74 433.93 569.28 435.04 571.81 436.18 C 573.22 437.39 574.62 438.62 576.21 439.60 C 590.82 449.05 604.41 460.01 617.01 471.99 C 619.57 474.55 623.12 477.60 621.39 481.66 C 604.16 517.77 586.72 553.80 569.50 589.92 C 567.44 594.10 565.16 598.22 563.92 602.74 C 562.49 602.56 561.04 602.23 559.93 601.25 C 547.44 591.69 535.63 581.23 522.62 572.36 C 517.93 568.20 512.20 565.58 507.27 561.78 C 503.97 559.63 500.15 558.39 497.04 555.95 C 493.09 552.89 488.38 551.02 483.54 549.95 C 481.52 549.48 478.10 547.86 479.74 545.35 C 494.32 514.76 509.08 484.25 523.68 453.67 Z" />
</g>
</svg>
